# Blender v2.90.1 OBJ File: 'openDoor.blend'
# www.blender.org
mtllib openDoor.mtl
o InteriorDoorProfile_Mesh
v 0.537391 0.003003 0.191559
v 0.537391 2.305048 0.191559
v 0.608024 2.360778 0.191559
v 0.608024 0.003003 0.191559
v 0.537391 0.003003 0.111767
v 0.537391 2.305048 0.111767
v 0.608024 0.003003 0.111767
v 0.608024 2.360778 0.111767
v -0.637839 0.003003 0.191559
v -0.710561 0.003003 0.191559
v -0.710561 2.360778 0.191559
v -0.637839 2.305048 0.191559
v -0.637839 0.003003 0.111767
v -0.637839 2.305048 0.111767
v -0.710561 0.003003 0.111767
v -0.710561 2.360778 0.111767
vt 0.129000 0.051400
vt 0.129000 0.966700
vt 0.165200 0.931700
vt 0.165200 0.051400
vt 0.757700 0.956300
vt 0.792200 0.956300
vt 0.792200 0.116800
vt 0.757700 0.116800
vt 0.839800 0.931700
vt 0.898600 0.966700
vt 0.898600 0.051400
vt 0.839800 0.051400
vt 0.839700 0.931700
vt 0.899400 0.966700
vt 0.899400 0.051400
vt 0.839700 0.051400
vt 0.790900 0.945900
vt 0.790900 0.127300
vt 0.755500 0.127300
vt 0.755500 0.945900
vt 0.165400 0.931700
vt 0.165400 0.051400
vt 0.128200 0.051400
vt 0.128200 0.966700
vt 0.760800 0.167700
vt 0.760800 0.792700
vt 0.803200 0.792700
vt 0.803200 0.167700
vn 0.0000 0.0000 1.0000
vn -1.0000 0.0000 0.0000
vn 0.0000 -0.0000 -1.0000
vn 1.0000 0.0000 0.0000
vn 0.0000 -1.0000 0.0000
g InteriorDoorProfile_Mesh_InteriorDoor
usemtl InteriorDoor
s 1
f 4/1/1 3/2/1 2/3/1
f 2/3/1 1/4/1 4/1/1
f 2/5/2 6/6/2 5/7/2
f 5/7/2 1/8/2 2/5/2
f 6/9/3 8/10/3 7/11/3
f 7/11/3 5/12/3 6/9/3
f 12/13/1 11/14/1 10/15/1
f 10/15/1 9/16/1 12/13/1
f 12/17/4 9/18/4 13/19/4
f 13/19/4 14/20/4 12/17/4
f 14/21/3 13/22/3 15/23/3
f 15/23/3 16/24/3 14/21/3
f 12/13/1 2/3/1 3/2/1
f 3/2/1 11/14/1 12/13/1
f 14/25/5 6/26/5 2/27/5
f 2/27/5 12/28/5 14/25/5
f 16/24/3 8/10/3 6/9/3
f 6/9/3 14/21/3 16/24/3
o InteriorDoor_Mesh.001
v 0.053846 0.044963 1.150566
v 0.008193 0.044963 1.129828
v 0.484159 0.044963 0.081983
v 0.529812 0.044963 0.102720
v 0.053846 2.307299 1.150565
v 0.529812 2.307299 0.102720
v 0.484159 2.307299 0.081983
v 0.008193 2.307299 1.129828
vt 0.762900 0.799000
vt 0.762900 0.170000
vt 0.790300 0.170000
vt 0.790300 0.799000
vt 0.799400 0.094200
vt 0.799400 0.913900
vt 0.763700 0.913900
vt 0.763700 0.094200
vt 0.806400 0.037500
vt 0.806400 0.962500
vt 0.193600 0.962500
vt 0.193600 0.037500
vt 0.774400 0.862200
vt 0.774400 0.142700
vt 0.790600 0.142700
vt 0.790600 0.862200
vt 0.806400 0.962500
vt 0.193600 0.962500
vt 0.193600 0.037500
vt 0.806400 0.037500
vt 0.769000 0.116300
vt 0.786200 0.116300
vt 0.786200 0.873900
vt 0.769000 0.873900
vn -0.0000 -1.0000 0.0000
vn 0.0000 1.0000 0.0000
vn 0.9105 0.0000 0.4136
vn 0.4136 -0.0000 -0.9105
vn -0.9105 -0.0000 -0.4136
vn -0.4136 0.0000 0.9105
g InteriorDoor_Mesh.001_InteriorDoor
usemtl InteriorDoor
s 1
f 18/29/6 19/30/6 20/31/6
f 20/31/6 17/32/6 18/29/6
f 23/33/7 24/34/7 21/35/7
f 21/35/7 22/36/7 23/33/7
f 20/37/8 22/38/8 21/39/8
f 21/39/8 17/40/8 20/37/8
f 22/41/9 20/42/9 19/43/9
f 19/43/9 23/44/9 22/41/9
f 24/45/10 23/46/10 19/47/10
f 19/47/10 18/48/10 24/45/10
f 18/49/11 17/50/11 21/51/11
f 21/51/11 24/52/11 18/49/11
